<svg xmlns="http://www.w3.org/2000/svg" xmlns:xlink="http://www.w3.org/1999/xlink" version="1.1" x="0px" y="0px" padding="20px" viewBox="0 0 95 118.75" enable-background="new 0 0 95 95" xml:space="preserve"><g>
<path fill="#ffffff" d="M56.933,87.09c-1.228,0-2.372-0.66-2.984-1.723l-7.965-13.795l-7.772,13.463c-0.731,1.267-2.095,2.055-3.559,2.055   c-0.718,0-1.428-0.191-2.052-0.552c-0.95-0.548-1.63-1.434-1.915-2.493c-0.284-1.06-0.139-2.167,0.41-3.118l10.144-17.57   l-2.957-5.122l-11.122,6.421l-1.742-2.903c-1.897-3.162-18.438-31.274-15.012-44.504c0.736-2.837,2.272-4.947,4.567-6.271   c0.524-0.303,1.119-0.462,1.72-0.462c1.226,0,2.369,0.659,2.981,1.721l25.539,44.235l7.663-13.272   c-3.411-3.968-3.981-9.786-1.348-14.346L63.78,7.636l3.974,2.294l-9.738,16.868c-0.131,0.227-0.166,0.492-0.098,0.745   c0.068,0.253,0.23,0.465,0.458,0.596c0.459,0.265,1.083,0.091,1.344-0.359l9.738-16.866l4.252,2.455l-9.738,16.866   c-0.131,0.228-0.166,0.492-0.098,0.746c0.068,0.253,0.23,0.465,0.458,0.596c0.456,0.264,1.081,0.091,1.342-0.359l9.738-16.867   l4.252,2.455l-9.738,16.867c-0.131,0.228-0.166,0.492-0.098,0.745c0.068,0.254,0.231,0.466,0.459,0.598   c0.457,0.264,1.082,0.09,1.343-0.359l9.738-16.867l3.974,2.294l-12.25,21.218c-2.215,3.837-6.348,6.221-10.786,6.221   c-0.776,0-1.551-0.073-2.312-0.217L49.958,64.688l9.952,17.238c0.46,0.795,0.583,1.723,0.345,2.611   c-0.238,0.889-0.808,1.631-1.604,2.09C58.128,86.93,57.534,87.09,56.933,87.09z M45.983,68.572l9.264,16.045   c0.516,0.893,1.754,1.231,2.654,0.712c0.449-0.259,0.771-0.678,0.905-1.179s0.065-1.024-0.194-1.473L48.226,64.688L59.247,45.6   l0.543,0.129c0.822,0.195,1.668,0.294,2.515,0.294c3.903,0,7.538-2.096,9.487-5.471l11.5-19.919l-1.376-0.794l-8.988,15.568   c-0.659,1.142-2.246,1.571-3.392,0.908c-0.575-0.332-0.986-0.868-1.158-1.508c-0.171-0.64-0.083-1.309,0.249-1.883l8.988-15.568   L75.96,16.4l-8.988,15.568c-0.66,1.141-2.244,1.57-3.391,0.908c-0.575-0.331-0.986-0.867-1.157-1.507   c-0.172-0.641-0.083-1.31,0.248-1.884l8.988-15.567l-1.654-0.955L61.018,28.53c-0.659,1.143-2.244,1.572-3.392,0.908   c-0.574-0.331-0.985-0.866-1.157-1.507c-0.172-0.641-0.083-1.31,0.248-1.884l8.988-15.569l-1.376-0.794l-11.5,19.919   c-2.398,4.154-1.775,9.494,1.517,12.984l0.383,0.406l-9.514,16.478L18.376,12.986c-0.515-0.892-1.75-1.231-2.653-0.71   c-1.934,1.116-3.234,2.916-3.865,5.349C8.586,30.263,24.84,57.875,26.705,60.981l0.983,1.638l11.144-6.434l4.14,7.171   l-10.578,18.32c-0.348,0.604-0.441,1.307-0.26,1.979c0.181,0.672,0.612,1.234,1.216,1.583c1.208,0.698,2.872,0.245,3.563-0.954   L45.983,68.572z"/></g>
<text x="" y="110" fill="#ffffff" font-size="20px" font-weight="bold" text-align="center" font-family="'Helvetica Neue', Helvetica, Arial-Unicode, Arial, Sans-serif"></text></svg>